<svg xmlns="http://www.w3.org/2000/svg" xmlns:xlink="http://www.w3.org/1999/xlink" width="30" height="30" zoomAndPan="magnify" viewBox="0 0 810 809.999993" preserveAspectRatio="xMidYMid meet" version="1.0"><defs><clipPath id="f3f1e02e71"><path d="M 7.214844 0 L 22.457031 0 L 22.457031 29.03125 L 7.214844 29.03125 Z M 7.214844 0 " clip-rule="nonzero"/></clipPath></defs><g clip-path="url(#f3f1e02e71)"><path fill="#004aad" d="M 18.886719 0 C 14.800781 0 12.402344 2.160156 12.402344 7.078125 L 12.402344 11.40625 L 7.21875 11.40625 L 7.21875 16.589844 L 12.402344 16.589844 L 12.402344 29.03125 L 17.585938 29.03125 L 17.585938 16.589844 L 21.734375 16.589844 L 22.773438 11.40625 L 17.585938 11.40625 L 17.585938 7.953125 C 17.585938 6.101562 18.191406 5.183594 19.929688 5.183594 L 22.773438 5.183594 L 22.773438 0.210938 C 22.28125 0.144531 20.847656 0 18.886719 0 Z M 18.886719 0 " fill-opacity="1" fill-rule="nonzero"/></g></svg>
