<svg xmlns="http://www.w3.org/2000/svg" xmlns:xlink="http://www.w3.org/1999/xlink" width="30" height="30" zoomAndPan="magnify" viewBox="0 0 810 809.999993" preserveAspectRatio="xMidYMid meet" version="1.0"><defs><clipPath id="62aca63c63"><path d="M 132.242188 298 L 364 298 L 364 658 L 132.242188 658 Z M 132.242188 298 " clip-rule="nonzero"/></clipPath><clipPath id="d3f1ada4e9"><path d="M 212 245 L 696.242188 245 L 696.242188 717 L 212 717 Z M 212 245 " clip-rule="nonzero"/></clipPath></defs><rect x="-81" width="972" fill="#ffffff" y="-80.999999" height="971.999992" fill-opacity="1"/><rect x="-81" width="972" fill="#ffffff" y="-80.999999" height="971.999992" fill-opacity="1"/><path fill="#87f1e9" d="M 353.921875 333.539062 L 353.921875 309.457031 C 242.882812 293.691406 141.375 380.898438 141.375 494.859375 C 141.375 558.183594 173.039062 614.246094 221.339844 648.144531 C 188.996094 613.574219 171.011719 568.003906 171.039062 520.667969 C 171.039062 418.902344 252.679688 335.914062 353.921875 333.539062 " fill-opacity="1" fill-rule="nonzero"/><path fill="#87f1e9" d="M 358.34375 606.171875 C 404.425781 606.171875 442.015625 569.527344 443.730469 523.859375 L 443.886719 116.207031 L 518.394531 116.207031 C 516.800781 107.691406 516 99.054688 515.992188 90.394531 L 414.226562 90.394531 L 414.054688 498.0625 C 411.71875 560.996094 344.167969 599.648438 288.996094 570.527344 C 305.023438 592.882812 330.832031 606.144531 358.34375 606.171875 M 657.566406 254.582031 L 657.566406 231.925781 C 630.1875 231.957031 603.390625 223.988281 580.472656 209.019531 C 600.570312 232.148438 627.617188 248.132812 657.582031 254.582031 " fill-opacity="1" fill-rule="nonzero"/><path fill="#da004f" d="M 580.472656 209 C 558.015625 183.3125 545.640625 150.34375 545.652344 116.226562 L 518.386719 116.226562 C 525.519531 154.332031 547.957031 187.859375 580.472656 209 M 328.683594 409.335938 C 281.460938 409.390625 243.195312 447.640625 243.140625 494.84375 C 243.167969 526.625 260.820312 555.769531 288.984375 570.535156 C 278.460938 556.03125 272.796875 538.585938 272.796875 520.667969 C 272.847656 473.46875 311.113281 435.203125 358.34375 435.148438 C 367.15625 435.148438 375.605469 436.601562 383.582031 439.105469 L 383.582031 335.261719 C 372.050781 333.625 363.363281 333.355469 353.929688 333.53125 L 353.929688 413.296875 C 345.761719 410.703125 337.25 409.363281 328.683594 409.335938 " fill-opacity="1" fill-rule="nonzero"/><path fill="#da004f" d="M 657.566406 254.582031 L 657.566406 333.640625 C 604.789062 333.640625 555.914062 316.769531 515.984375 288.132812 L 515.984375 494.851562 C 515.984375 598.085938 431.972656 682.078125 328.691406 682.078125 C 288.777344 682.078125 251.765625 669.488281 221.347656 648.136719 C 256.703125 686.25 306.347656 707.902344 358.339844 707.890625 C 461.621094 707.890625 545.652344 623.898438 545.652344 520.675781 L 545.652344 313.957031 C 586.898438 343.601562 636.433594 359.527344 687.234375 359.464844 L 687.234375 257.71875 C 677.046875 257.71875 667.140625 256.613281 657.558594 254.5625 " fill-opacity="1" fill-rule="nonzero"/><path fill="#1c1c1c" d="M 515.980469 494.84375 L 515.980469 288.125 C 557.222656 317.777344 606.761719 333.695312 657.5625 333.632812 L 657.5625 254.582031 C 627.605469 248.125 600.554688 232.132812 580.464844 209 C 547.949219 187.859375 525.511719 154.332031 518.382812 116.226562 L 443.878906 116.226562 L 443.722656 523.878906 C 442.011719 569.53125 404.417969 606.175781 358.335938 606.175781 C 330.832031 606.148438 305.015625 592.878906 288.996094 570.542969 C 260.832031 555.785156 243.171875 526.640625 243.136719 494.851562 C 243.203125 437.398438 299.054688 396.011719 353.921875 413.300781 L 353.921875 333.539062 C 252.679688 335.914062 171.039062 418.902344 171.039062 520.667969 C 171.039062 569.882812 190.167969 614.683594 221.339844 648.144531 C 252.761719 670.257812 290.257812 682.105469 328.683594 682.070312 C 431.972656 682.070312 515.980469 598.082031 515.980469 494.84375 " fill-opacity="1" fill-rule="nonzero"/><g clip-path="url(#62aca63c63)"><path fill="#000000" d="M 216.113281 655.582031 C 163.621094 618.742188 132.28125 558.65625 132.28125 494.859375 C 132.28125 375.589844 238.464844 283.886719 355.199219 300.457031 C 359.683594 301.09375 363.011719 304.929688 363.011719 309.457031 L 363.011719 333.539062 C 363.011719 338.476562 359.070312 342.507812 354.132812 342.625 C 258.1875 344.875 180.132812 424.746094 180.132812 520.667969 C 180.105469 565.863281 197.097656 608.929688 227.980469 641.9375 C 231.160156 645.339844 231.257812 650.59375 228.199219 654.105469 C 225.144531 657.628906 219.917969 658.253906 216.113281 655.582031 Z M 150.46875 494.859375 C 150.46875 522.921875 157.15625 550.203125 169.476562 574.667969 C 164.503906 557.285156 161.9375 539.136719 161.949219 520.664062 C 161.949219 417.140625 242.542969 331.828125 344.828125 324.859375 L 344.828125 317.523438 C 241.710938 307.589844 150.46875 389.621094 150.46875 494.859375 Z M 150.46875 494.859375 " fill-opacity="1" fill-rule="nonzero"/></g><path fill="#000000" d="M 358.34375 615.257812 C 358.339844 615.257812 358.335938 615.257812 358.335938 615.257812 C 327.972656 615.226562 299.289062 600.484375 281.605469 575.824219 C 279.148438 572.394531 279.371094 567.730469 282.144531 564.550781 C 284.917969 561.375 289.507812 560.523438 293.242188 562.488281 C 304.109375 568.226562 316.347656 571.257812 328.640625 571.257812 C 328.652344 571.257812 328.667969 571.257812 328.679688 571.257812 C 369.875 571.257812 403.347656 539.042969 404.964844 497.886719 L 405.136719 90.390625 C 405.136719 85.371094 409.207031 81.304688 414.226562 81.304688 L 515.992188 81.304688 C 521.011719 81.304688 525.082031 85.371094 525.085938 90.386719 C 525.09375 98.472656 525.847656 106.597656 527.332031 114.535156 C 528.378906 120.117188 524.085938 125.292969 518.394531 125.292969 L 452.976562 125.292969 C 452.816406 536.84375 452.828125 523.925781 452.8125 524.199219 C 450.894531 575.261719 409.402344 615.257812 358.34375 615.257812 Z M 325.023438 589.363281 C 373.886719 613.148438 432.417969 579.574219 434.636719 523.683594 L 434.796875 116.203125 C 434.796875 111.183594 438.867188 107.117188 443.886719 107.117188 L 507.851562 107.117188 C 507.5625 104.578125 507.34375 102.03125 507.183594 99.480469 L 423.316406 99.480469 C 423.144531 511.03125 423.15625 498.125 423.144531 498.398438 C 421.1875 551.046875 377.25 591.417969 325.023438 589.363281 Z M 655.34375 263.398438 C 623.796875 256.535156 594.78125 239.347656 573.609375 214.980469 C 570.632812 211.554688 570.636719 206.464844 573.621094 203.046875 C 576.601562 199.628906 581.644531 198.929688 585.445312 201.410156 C 606.910156 215.429688 631.796875 222.839844 657.425781 222.839844 C 663.082031 222.941406 666.660156 227.265625 666.660156 231.929688 C 666.648438 257.078125 666.75 255.203125 666.472656 256.496094 C 665.460938 261.191406 660.503906 264.691406 655.34375 263.398438 Z M 640.476562 240.0625 C 643.109375 241.066406 645.78125 241.984375 648.476562 242.816406 L 648.476562 240.753906 C 645.796875 240.59375 643.128906 240.363281 640.476562 240.0625 Z M 640.476562 240.0625 " fill-opacity="1" fill-rule="nonzero"/><path fill="#000000" d="M 284.761719 578.582031 C 253.511719 562.199219 234.078125 530.117188 234.046875 494.855469 C 234.113281 435.945312 287.757812 391.488281 344.835938 401.707031 L 344.835938 333.53125 C 344.835938 328.578125 348.804688 324.539062 353.757812 324.445312 C 364.167969 324.238281 373.390625 324.632812 384.859375 326.261719 C 389.34375 326.898438 392.671875 330.734375 392.671875 335.261719 L 392.671875 439.105469 C 392.671875 442 391.296875 444.722656 388.960938 446.433594 C 386.625 448.148438 383.613281 448.644531 380.855469 447.78125 C 331.378906 432.234375 281.941406 469.910156 281.890625 520.679688 C 281.890625 536.765625 286.886719 552.164062 296.34375 565.199219 C 298.824219 568.617188 298.621094 573.289062 295.859375 576.480469 C 293.09375 579.679688 288.492188 580.539062 284.761719 578.582031 Z M 328.667969 418.425781 C 267.394531 418.519531 231.449219 487.195312 265.1875 537.402344 C 253.511719 472.308594 310.910156 416.070312 374.488281 427.519531 L 374.488281 343.328125 C 370.683594 342.960938 366.851562 342.714844 363.023438 342.597656 L 363.023438 413.296875 C 363.023438 416.195312 361.640625 418.921875 359.296875 420.632812 C 356.957031 422.34375 353.933594 422.835938 351.175781 421.960938 C 343.875 419.640625 336.300781 418.453125 328.667969 418.425781 Z M 575.511719 216.617188 C 541.082031 194.230469 517.003906 158.25 509.449219 117.898438 C 508.40625 112.3125 512.695312 107.136719 518.386719 107.136719 L 545.652344 107.136719 C 550.679688 107.136719 554.746094 111.222656 554.746094 116.230469 C 554.730469 148.15625 566.300781 178.976562 587.316406 203.019531 C 590.304688 206.433594 590.3125 211.53125 587.339844 214.957031 C 584.371094 218.375 579.324219 219.09375 575.511719 216.617188 Z M 529.816406 125.316406 C 532.539062 135.1875 536.402344 144.679688 541.277344 153.601562 C 538.90625 144.378906 537.410156 134.910156 536.832031 125.316406 Z M 529.816406 125.316406 " fill-opacity="1" fill-rule="nonzero"/><g clip-path="url(#d3f1ada4e9)"><path fill="#000000" d="M 214.679688 654.316406 C 211.515625 650.910156 211.4375 645.664062 214.496094 642.160156 C 217.554688 638.660156 222.765625 638.027344 226.570312 640.699219 C 256.667969 661.824219 291.980469 672.992188 328.691406 672.992188 C 426.949219 672.992188 506.890625 593.078125 506.890625 494.851562 L 506.890625 288.132812 C 506.890625 284.722656 508.800781 281.601562 511.832031 280.046875 C 514.863281 278.488281 518.515625 278.761719 521.285156 280.75 C 558.773438 307.636719 602.570312 322.628906 648.472656 324.378906 L 648.472656 254.976562 C 648.210938 249.011719 653.65625 244.429688 659.464844 245.675781 C 668.625 247.636719 677.96875 248.632812 687.230469 248.632812 C 692.253906 248.632812 696.324219 252.699219 696.324219 257.71875 L 696.324219 359.46875 C 696.324219 364.164062 692.683594 368.554688 686.929688 368.554688 C 639.804688 368.558594 594.460938 355.613281 554.746094 330.96875 L 554.746094 520.679688 C 554.746094 628.917969 466.640625 716.980469 358.34375 716.980469 C 357.066406 716.703125 276.421875 720.875 214.679688 654.316406 Z M 300.78125 689.191406 C 416.21875 728.753906 536.558594 642.433594 536.558594 520.675781 C 536.640625 300.199219 536.359375 313.816406 536.785156 311.949219 C 532.832031 309.78125 528.929688 307.507812 525.078125 305.125 L 525.078125 494.851562 C 525.078125 613.695312 419.472656 706.164062 300.78125 689.191406 Z M 615.597656 339.257812 C 635.695312 345.722656 656.691406 349.417969 678.140625 350.214844 L 678.140625 266.527344 C 674.308594 266.292969 670.476562 265.914062 666.660156 265.386719 L 666.660156 333.640625 C 666.660156 338.660156 662.589844 342.730469 657.566406 342.730469 C 643.382812 342.730469 629.355469 341.5625 615.597656 339.257812 Z M 615.597656 339.257812 " fill-opacity="1" fill-rule="nonzero"/></g><path fill="#000000" d="M 216.105469 655.578125 C 215.589844 655.214844 215.113281 654.800781 214.6875 654.339844 C 180.675781 617.832031 161.949219 570.359375 161.949219 520.667969 C 161.949219 413.917969 247.445312 326.941406 353.710938 324.453125 C 358.976562 324.355469 363.015625 328.570312 363.015625 333.539062 L 363.015625 413.300781 C 363.015625 416.199219 361.636719 418.917969 359.300781 420.632812 C 356.964844 422.34375 353.953125 422.839844 351.191406 421.96875 C 343.738281 419.621094 336.167969 418.433594 328.6875 418.433594 C 286.582031 418.484375 252.285156 452.769531 252.234375 494.863281 C 252.265625 523.335938 267.972656 549.261719 293.21875 562.492188 C 294.476562 563.148438 295.5625 564.09375 296.390625 565.246094 C 310.671875 585.160156 333.835938 597.0625 358.347656 597.089844 C 399.527344 597.089844 433.007812 564.867188 434.632812 523.703125 L 434.792969 116.222656 C 434.792969 111.203125 438.863281 107.136719 443.882812 107.136719 L 518.386719 107.136719 C 522.761719 107.136719 526.515625 110.253906 527.324219 114.554688 C 533.964844 150.046875 555.144531 181.691406 585.429688 201.378906 C 586.140625 201.84375 586.78125 202.402344 587.335938 203.042969 C 606.011719 224.546875 631.632812 239.695312 659.480469 245.699219 C 663.667969 246.601562 666.65625 250.300781 666.65625 254.582031 L 666.65625 333.632812 C 666.65625 338.371094 662.976562 342.722656 657.265625 342.722656 C 610.125 342.722656 564.785156 329.785156 525.074219 305.136719 L 525.074219 494.84375 C 525.074219 603.09375 436.976562 691.160156 328.6875 691.160156 C 286.625 691.160156 248.058594 678.0625 216.105469 655.578125 Z M 227.347656 641.253906 C 257.183594 662.015625 292.136719 672.984375 328.507812 672.984375 C 427.285156 672.984375 506.886719 592.796875 506.886719 494.84375 L 506.886719 288.125 C 506.886719 280.734375 515.277344 276.425781 521.289062 280.746094 C 558.757812 307.6875 602.558594 322.683594 648.46875 324.382812 L 648.46875 261.730469 C 620 254.089844 593.976562 238.019531 574.441406 215.917969 C 542.691406 194.882812 519.910156 162.226562 511.03125 125.3125 L 452.96875 125.3125 L 452.816406 523.882812 C 452.816406 523.996094 452.8125 524.105469 452.808594 524.21875 C 450.898438 575.273438 409.402344 615.265625 358.335938 615.265625 C 328.691406 615.234375 300.648438 601.183594 282.878906 577.570312 C 252.742188 560.90625 234.085938 529.414062 234.046875 494.863281 C 234.117188 435.886719 287.875 391.457031 344.828125 401.710938 L 344.828125 343.085938 C 253.191406 350.085938 180.132812 427.863281 180.132812 520.667969 C 180.132812 565.433594 196.894531 608.21875 227.347656 641.253906 Z M 227.347656 641.253906 " fill-opacity="1" fill-rule="nonzero"/></svg>
