<svg xmlns="http://www.w3.org/2000/svg" xmlns:xlink="http://www.w3.org/1999/xlink" width="40" zoomAndPan="magnify" viewBox="0 0 30 30.000001" height="40" preserveAspectRatio="xMidYMid meet" version="1.0"><defs><clipPath id="3dcd288fb2"><path d="M 2.359375 10 L 13 10 L 13 26 L 2.359375 26 Z M 2.359375 10 " clip-rule="nonzero"/></clipPath><clipPath id="29b16ccaa7"><path d="M 6 7 L 27.761719 7 L 27.761719 29 L 6 29 Z M 6 7 " clip-rule="nonzero"/></clipPath><clipPath id="dab7e5d883"><path d="M 2.359375 9 L 13 9 L 13 26 L 2.359375 26 Z M 2.359375 9 " clip-rule="nonzero"/></clipPath><clipPath id="bbb298f94d"><path d="M 5 7 L 27.761719 7 L 27.761719 29 L 5 29 Z M 5 7 " clip-rule="nonzero"/></clipPath></defs><g clip-path="url(#3dcd288fb2)"><path fill="#87f1e9" d="M 12.34375 11.3125 L 12.34375 10.230469 C 7.34375 9.523438 2.769531 13.433594 2.769531 18.546875 C 2.769531 21.386719 4.195312 23.898438 6.371094 25.417969 C 4.914062 23.867188 4.105469 21.824219 4.105469 19.703125 C 4.105469 15.140625 7.785156 11.417969 12.34375 11.3125 " fill-opacity="1" fill-rule="nonzero"/></g><path fill="#87f1e9" d="M 12.542969 23.535156 C 14.617188 23.535156 16.3125 21.894531 16.386719 19.847656 L 16.394531 1.566406 L 19.75 1.566406 C 19.679688 1.183594 19.644531 0.796875 19.644531 0.410156 L 15.058594 0.410156 L 15.050781 18.6875 C 14.945312 21.511719 11.90625 23.242188 9.417969 21.9375 C 10.140625 22.941406 11.304688 23.535156 12.542969 23.535156 M 26.019531 7.769531 L 26.019531 6.753906 C 24.785156 6.757812 23.578125 6.398438 22.546875 5.726562 C 23.453125 6.765625 24.671875 7.480469 26.019531 7.769531 " fill-opacity="1" fill-rule="nonzero"/><path fill="#da004f" d="M 22.546875 5.726562 C 21.535156 4.574219 20.980469 3.097656 20.980469 1.566406 L 19.75 1.566406 C 20.074219 3.277344 21.082031 4.78125 22.546875 5.726562 M 11.207031 14.710938 C 9.078125 14.714844 7.355469 16.429688 7.355469 18.542969 C 7.355469 19.96875 8.148438 21.277344 9.417969 21.9375 C 8.945312 21.289062 8.691406 20.507812 8.691406 19.703125 C 8.691406 17.585938 10.414062 15.871094 12.542969 15.867188 C 12.941406 15.867188 13.320312 15.933594 13.679688 16.046875 L 13.679688 11.390625 C 13.160156 11.316406 12.769531 11.304688 12.34375 11.3125 L 12.34375 14.886719 C 11.976562 14.773438 11.59375 14.710938 11.207031 14.710938 " fill-opacity="1" fill-rule="nonzero"/><g clip-path="url(#29b16ccaa7)"><path fill="#da004f" d="M 26.019531 7.769531 L 26.019531 11.316406 C 23.644531 11.316406 21.441406 10.558594 19.644531 9.277344 L 19.644531 18.546875 C 19.644531 23.175781 15.859375 26.941406 11.207031 26.941406 C 9.410156 26.941406 7.742188 26.375 6.371094 25.417969 C 7.964844 27.128906 10.199219 28.097656 12.542969 28.097656 C 17.195312 28.097656 20.980469 24.332031 20.980469 19.703125 L 20.980469 10.433594 C 22.835938 11.761719 25.066406 12.476562 27.355469 12.472656 L 27.355469 7.910156 C 26.898438 7.910156 26.453125 7.863281 26.019531 7.769531 " fill-opacity="1" fill-rule="nonzero"/></g><path fill="#1c1c1c" d="M 19.644531 18.542969 L 19.644531 9.277344 C 21.5 10.605469 23.730469 11.320312 26.019531 11.316406 L 26.019531 7.769531 C 24.671875 7.480469 23.453125 6.765625 22.546875 5.726562 C 21.082031 4.78125 20.074219 3.277344 19.75 1.566406 L 16.394531 1.566406 L 16.386719 19.847656 C 16.3125 21.894531 14.617188 23.535156 12.542969 23.535156 C 11.304688 23.535156 10.140625 22.941406 9.417969 21.9375 C 8.152344 21.277344 7.355469 19.96875 7.355469 18.546875 C 7.355469 15.96875 9.871094 14.113281 12.34375 14.886719 L 12.34375 11.3125 C 7.785156 11.417969 4.105469 15.140625 4.105469 19.703125 C 4.105469 21.910156 4.96875 23.917969 6.371094 25.417969 C 7.789062 26.410156 9.476562 26.941406 11.207031 26.941406 C 15.859375 26.941406 19.644531 23.171875 19.644531 18.542969 " fill-opacity="1" fill-rule="nonzero"/><g clip-path="url(#dab7e5d883)"><path fill="#000000" d="M 6.136719 25.753906 C 3.773438 24.101562 2.359375 21.40625 2.359375 18.546875 C 2.359375 13.199219 7.144531 9.085938 12.402344 9.828125 C 12.601562 9.855469 12.753906 10.027344 12.753906 10.230469 L 12.753906 11.3125 C 12.753906 11.53125 12.574219 11.714844 12.351562 11.71875 C 8.03125 11.820312 4.515625 15.402344 4.515625 19.703125 C 4.515625 21.730469 5.28125 23.660156 6.671875 25.140625 C 6.8125 25.292969 6.820312 25.527344 6.679688 25.6875 C 6.542969 25.84375 6.308594 25.871094 6.136719 25.753906 Z M 3.179688 18.546875 C 3.179688 19.804688 3.480469 21.027344 4.035156 22.125 C 3.8125 21.34375 3.695312 20.53125 3.695312 19.703125 C 3.695312 15.0625 7.328125 11.234375 11.933594 10.921875 L 11.933594 10.59375 C 7.289062 10.148438 3.179688 13.828125 3.179688 18.546875 Z M 3.179688 18.546875 " fill-opacity="1" fill-rule="nonzero"/></g><path fill="#000000" d="M 12.542969 23.945312 C 11.175781 23.941406 9.882812 23.28125 9.085938 22.175781 C 8.976562 22.023438 8.984375 21.8125 9.109375 21.671875 C 9.234375 21.527344 9.441406 21.488281 9.609375 21.578125 C 10.101562 21.835938 10.652344 21.972656 11.203125 21.972656 C 11.207031 21.972656 11.207031 21.972656 11.207031 21.972656 C 13.0625 21.972656 14.570312 20.527344 14.644531 18.679688 L 14.648438 0.410156 C 14.648438 0.183594 14.832031 0 15.058594 0 L 19.644531 0 C 19.871094 0 20.054688 0.183594 20.054688 0.410156 C 20.054688 0.773438 20.085938 1.136719 20.152344 1.492188 C 20.203125 1.742188 20.007812 1.972656 19.75 1.972656 L 16.804688 1.972656 C 16.796875 20.429688 16.796875 19.847656 16.796875 19.859375 C 16.710938 22.152344 14.84375 23.945312 12.542969 23.945312 Z M 11.042969 22.78125 C 13.242188 23.847656 15.878906 22.34375 15.980469 19.835938 L 15.984375 1.566406 C 15.984375 1.339844 16.167969 1.160156 16.394531 1.160156 L 19.277344 1.160156 C 19.265625 1.046875 19.253906 0.929688 19.246094 0.816406 L 15.46875 0.816406 C 15.460938 19.269531 15.460938 18.691406 15.460938 18.703125 C 15.375 21.066406 13.394531 22.875 11.042969 22.78125 Z M 25.921875 8.167969 C 24.5 7.859375 23.191406 7.089844 22.238281 5.996094 C 22.105469 5.84375 22.105469 5.613281 22.238281 5.460938 C 22.375 5.308594 22.601562 5.277344 22.773438 5.386719 C 23.738281 6.015625 24.859375 6.347656 26.015625 6.347656 C 26.269531 6.351562 26.429688 6.546875 26.429688 6.753906 C 26.429688 7.882812 26.433594 7.800781 26.421875 7.855469 C 26.375 8.066406 26.152344 8.226562 25.921875 8.167969 Z M 25.25 7.121094 C 25.367188 7.164062 25.488281 7.207031 25.609375 7.242188 L 25.609375 7.152344 C 25.488281 7.144531 25.371094 7.132812 25.25 7.121094 Z M 25.25 7.121094 " fill-opacity="1" fill-rule="nonzero"/><path fill="#000000" d="M 9.230469 22.300781 C 7.820312 21.566406 6.945312 20.125 6.945312 18.546875 C 6.949219 15.902344 9.363281 13.910156 11.933594 14.367188 L 11.933594 11.3125 C 11.933594 11.089844 12.113281 10.910156 12.335938 10.902344 C 12.804688 10.894531 13.21875 10.914062 13.738281 10.984375 C 13.9375 11.015625 14.089844 11.1875 14.089844 11.390625 L 14.089844 16.046875 C 14.089844 16.175781 14.027344 16.296875 13.921875 16.375 C 13.816406 16.449219 13.679688 16.472656 13.558594 16.433594 C 11.328125 15.738281 9.101562 17.425781 9.097656 19.703125 C 9.097656 20.425781 9.324219 21.113281 9.75 21.699219 C 9.863281 21.851562 9.851562 22.0625 9.726562 22.207031 C 9.605469 22.347656 9.398438 22.386719 9.230469 22.300781 Z M 11.207031 15.117188 C 8.445312 15.121094 6.828125 18.203125 8.347656 20.453125 C 7.820312 17.535156 10.40625 15.011719 13.269531 15.527344 L 13.269531 11.75 C 13.097656 11.734375 12.925781 11.722656 12.753906 11.71875 L 12.753906 14.886719 C 12.753906 15.019531 12.691406 15.140625 12.585938 15.21875 C 12.480469 15.292969 12.34375 15.316406 12.21875 15.277344 C 11.890625 15.171875 11.550781 15.121094 11.207031 15.117188 Z M 22.324219 6.070312 C 20.773438 5.066406 19.6875 3.453125 19.347656 1.644531 C 19.300781 1.390625 19.496094 1.160156 19.75 1.160156 L 20.980469 1.160156 C 21.207031 1.160156 21.390625 1.34375 21.390625 1.566406 C 21.386719 3 21.910156 4.382812 22.855469 5.460938 C 22.992188 5.613281 22.992188 5.839844 22.855469 5.996094 C 22.722656 6.148438 22.496094 6.179688 22.324219 6.070312 Z M 20.265625 1.976562 C 20.390625 2.417969 20.5625 2.84375 20.78125 3.242188 C 20.675781 2.828125 20.609375 2.40625 20.582031 1.976562 Z M 20.265625 1.976562 " fill-opacity="1" fill-rule="nonzero"/><g clip-path="url(#bbb298f94d)"><path fill="#000000" d="M 6.070312 25.695312 C 5.929688 25.542969 5.925781 25.308594 6.0625 25.148438 C 6.203125 24.992188 6.4375 24.964844 6.609375 25.085938 C 7.964844 26.03125 9.554688 26.53125 11.207031 26.53125 C 15.632812 26.53125 19.234375 22.949219 19.234375 18.546875 L 19.234375 9.277344 C 19.234375 9.121094 19.320312 8.984375 19.457031 8.914062 C 19.59375 8.84375 19.757812 8.855469 19.882812 8.945312 C 21.570312 10.148438 23.542969 10.824219 25.609375 10.902344 L 25.609375 7.789062 C 25.597656 7.523438 25.84375 7.316406 26.105469 7.371094 C 26.519531 7.460938 26.9375 7.503906 27.355469 7.503906 C 27.582031 7.503906 27.765625 7.6875 27.765625 7.914062 L 27.765625 12.472656 C 27.765625 12.683594 27.601562 12.882812 27.34375 12.882812 C 25.21875 12.882812 23.179688 12.300781 21.390625 11.195312 L 21.390625 19.703125 C 21.390625 24.554688 17.421875 28.503906 12.542969 28.503906 C 12.484375 28.492188 8.851562 28.679688 6.070312 25.695312 Z M 9.949219 27.257812 C 15.148438 29.03125 20.570312 25.164062 20.570312 19.703125 C 20.574219 9.816406 20.5625 10.425781 20.578125 10.34375 C 20.402344 10.246094 20.226562 10.144531 20.050781 10.039062 L 20.050781 18.546875 C 20.050781 23.875 15.296875 28.019531 9.949219 27.257812 Z M 24.128906 11.566406 C 25.035156 11.859375 25.980469 12.023438 26.945312 12.058594 L 26.945312 8.308594 C 26.773438 8.296875 26.601562 8.28125 26.429688 8.257812 L 26.429688 11.316406 C 26.429688 11.542969 26.246094 11.722656 26.019531 11.722656 C 25.382812 11.722656 24.75 11.671875 24.128906 11.566406 Z M 24.128906 11.566406 " fill-opacity="1" fill-rule="nonzero"/></g><path fill="#000000" d="M 6.136719 25.75 C 6.113281 25.734375 6.089844 25.71875 6.070312 25.695312 C 4.539062 24.058594 3.695312 21.929688 3.695312 19.703125 C 3.695312 14.914062 7.546875 11.015625 12.335938 10.90625 C 12.570312 10.898438 12.753906 11.089844 12.753906 11.3125 L 12.753906 14.886719 C 12.753906 15.019531 12.691406 15.140625 12.585938 15.21875 C 12.480469 15.292969 12.34375 15.316406 12.21875 15.277344 C 11.886719 15.171875 11.542969 15.117188 11.207031 15.117188 C 9.3125 15.121094 7.765625 16.65625 7.761719 18.546875 C 7.765625 19.824219 8.472656 20.984375 9.609375 21.578125 C 9.667969 21.609375 9.714844 21.648438 9.753906 21.703125 C 10.394531 22.59375 11.4375 23.128906 12.542969 23.128906 C 14.398438 23.128906 15.90625 21.683594 15.980469 19.839844 L 15.984375 1.566406 C 15.984375 1.34375 16.167969 1.160156 16.394531 1.160156 L 19.75 1.160156 C 19.949219 1.160156 20.117188 1.300781 20.152344 1.492188 C 20.453125 3.085938 21.40625 4.503906 22.769531 5.386719 C 22.804688 5.40625 22.832031 5.433594 22.855469 5.460938 C 23.699219 6.425781 24.851562 7.105469 26.105469 7.375 C 26.296875 7.414062 26.429688 7.578125 26.429688 7.769531 L 26.429688 11.316406 C 26.429688 11.527344 26.265625 11.722656 26.007812 11.722656 C 23.882812 11.722656 21.839844 11.144531 20.050781 10.039062 L 20.050781 18.542969 C 20.050781 23.398438 16.085938 27.347656 11.207031 27.347656 C 9.3125 27.347656 7.574219 26.761719 6.136719 25.75 Z M 6.644531 25.109375 C 7.988281 26.039062 9.5625 26.53125 11.199219 26.53125 C 15.648438 26.53125 19.234375 22.9375 19.234375 18.542969 L 19.234375 9.277344 C 19.234375 8.945312 19.609375 8.75 19.882812 8.945312 C 21.570312 10.152344 23.542969 10.824219 25.609375 10.902344 L 25.609375 8.09375 C 24.328125 7.75 23.15625 7.027344 22.277344 6.039062 C 20.847656 5.09375 19.820312 3.628906 19.417969 1.976562 L 16.804688 1.976562 L 16.796875 19.847656 C 16.796875 19.851562 16.796875 19.855469 16.796875 19.863281 C 16.710938 22.152344 14.84375 23.945312 12.542969 23.945312 C 11.207031 23.941406 9.945312 23.3125 9.144531 22.253906 C 7.785156 21.507812 6.945312 20.09375 6.945312 18.546875 C 6.949219 15.902344 9.367188 13.910156 11.933594 14.367188 L 11.933594 11.738281 C 7.808594 12.054688 4.515625 15.542969 4.515625 19.703125 C 4.515625 21.710938 5.269531 23.628906 6.644531 25.109375 Z M 6.644531 25.109375 " fill-opacity="1" fill-rule="nonzero"/></svg>